<?xml version="1.0" standalone="no"?><!DOCTYPE svg PUBLIC "-//W3C//DTD SVG 1.1//EN" "http://www.w3.org/Graphics/SVG/1.1/DTD/svg11.dtd"><svg t="1636528568630" class="icon" viewBox="0 0 1024 1024" version="1.1" xmlns="http://www.w3.org/2000/svg" p-id="2712" xmlns:xlink="http://www.w3.org/1999/xlink" width="200" height="200"><defs><style type="text/css"></style></defs><path d="M884.906667 910.293333H164.693333a96.853333 96.853333 0 0 1-96.853333-96.853333V379.52a96.853333 96.853333 0 0 1 96.853333-96.853333h720.213334A96.853333 96.853333 0 0 1 981.333333 379.52v433.92a96.853333 96.853333 0 0 1-96.426666 96.853333zM164.693333 304a75.52 75.52 0 0 0-75.52 75.52v433.92a75.52 75.52 0 0 0 75.52 75.52h720.213334A75.52 75.52 0 0 0 960 813.44V379.52a75.52 75.52 0 0 0-75.52-75.52z" fill="" p-id="2713"></path><path d="M744.533333 297.173333h-21.333333V221.866667a87.68 87.68 0 0 0-87.68-87.68H413.44a87.68 87.68 0 0 0-87.68 87.68v75.306666h-21.333333V221.866667a109.226667 109.226667 0 0 1 109.013333-109.013334h222.08a109.226667 109.226667 0 0 1 109.013333 109.013334z" fill="" p-id="2714"></path><path d="M311.466667 557.44h426.666666v21.333333h-426.666666z" fill="#020202" p-id="2715"></path><path d="M514.133333 383.146667h21.333334v426.666666h-21.333334z" fill="#020202" p-id="2716"></path></svg>